<?xml version="1.0" encoding="UTF-8" standalone="no"?>
<svg width="72px" height="72px" viewBox="0 0 72 72" version="1.1" xmlns="http://www.w3.org/2000/svg" xmlns:xlink="http://www.w3.org/1999/xlink" xmlns:sketch="http://www.bohemiancoding.com/sketch/ns">
    <!-- Generator: Sketch Beta 3.2 (9790) - http://www.bohemiancoding.com/sketch -->
    <title>Oval 7</title>
    <desc>Created with Sketch Beta.</desc>
    <defs></defs>
    <g id="Page-1" stroke="none" stroke-width="1" fill="none" fill-rule="evenodd" sketch:type="MSPage">
        <path d="M36,72 C55.882251,72 72,55.882251 72,36 C72,16.117749 55.882251,0 36,0 C16.117749,0 0,16.117749 0,36 C0,55.882251 16.117749,72 36,72 Z M38.8693333,36.503307 L38.8693333,31.9862199 C40.0277968,31.4985975 41.298765,31.2435 42.7573333,31.2435 C47.3653333,31.2435 50.992,34.236 50.992,42.1875 C50.992,50.994 47.28,54.45675 42.032,54.45675 C40.1541929,54.45675 38.5799464,53.9244815 37.3472151,53.1261458 L37.3472151,53.1261458 C38.1480883,52.1839162 38.6449584,50.9112128 38.8090621,49.2696094 C39.2322796,49.3876709 39.6702732,49.455 40.112,49.455 C42.928,49.455 44.2506667,46.8045 44.2506667,42.5295 C44.2506667,39.195 43.184,36.288 40.3253333,36.288 C39.8379344,36.288 39.3462393,36.3697855 38.8693333,36.503307 L38.8693333,36.503307 Z M30.4266667,46.93275 C30.4266667,49.8825 29.616,50.652 27.8666667,50.652 C26.3306667,50.652 24.8373333,49.968 24.1546667,49.5405 L22.32,53.08875 C23.216,53.85825 25.9466667,55.269 29.4453333,55.269 C34.1813333,55.269 36.8693333,53.1315 36.8693333,48.0015 L36.8693333,25.6005 L27.952,25.6005 L27.44,29.06325 L29.872,29.8755 C30.2986667,30.00375 30.4266667,30.26025 30.4266667,30.77325 L30.4266667,46.93275 Z M36.9973333,18.333 C36.9973333,15.89625 35.5893333,14.571 33.1146667,14.571 C30.6826667,14.571 29.232,15.89625 29.232,18.333 C29.232,20.76975 30.6826667,22.1805 33.1146667,22.1805 C35.5893333,22.1805 36.9973333,20.76975 36.9973333,18.333 Z" id="Oval-7" fill="#E2BF36" sketch:type="MSShapeGroup"></path>
    </g>
</svg>