<svg width="72" height="72" viewBox="0 0 72 72" xmlns="http://www.w3.org/2000/svg"><title>Oval 7</title><desc>Created with Sketch Beta.</desc><g fill="none" fill-rule="evenodd"><path d="M36 72c19.882 0 36-16.118 36-36S55.882 0 36 0 0 16.118 0 36s16.118 36 36 36zm2.87-35.497v-4.517c1.158-.487 2.43-.742 3.887-.742 4.608 0 8.235 2.992 8.235 10.944 0 8.806-3.712 12.27-8.96 12.27-1.878 0-3.452-.534-4.685-1.332.8-.942 1.298-2.215 1.462-3.856.422.118.86.185 1.302.185 2.816 0 4.14-2.65 4.14-6.925 0-3.335-1.068-6.242-3.927-6.242-.487 0-.98.082-1.456.215zm-8.443 10.43c0 2.95-.81 3.72-2.56 3.72-1.536 0-3.03-.685-3.712-1.112l-1.835 3.55c.896.768 3.627 2.18 7.125 2.18 4.736 0 7.424-2.14 7.424-7.27v-22.4H27.95l-.512 3.463 2.432.813c.427.128.555.384.555.897v16.16zm6.57-28.6c0-2.437-1.408-3.762-3.882-3.762-2.432 0-3.883 1.326-3.883 3.763s1.45 3.848 3.883 3.848c2.474 0 3.882-1.41 3.882-3.847z" fill="#E2BF36"/></g></svg>